<?xml version="1.0" encoding="UTF-8"?>
<svg id="Capa_2" xmlns="http://www.w3.org/2000/svg" viewBox="0 0 653 599.51">
  <defs>
    <style>
      .cls-1 {
        fill: #fcee21;
      }
    </style>
  </defs>
  <path class="cls-1" d="M114,266L285,0c213,88,279,442,173.5,599.5-.79,1.17-284-144-284-144l162.03,54.64c44.55,15.03,90.21-19.67,87.66-66.62h0c-6.04-111.42-38.48-219.81-94.65-316.22h0c-18.88-32.41-64.05-36.6-88.57-8.21l-126.47,146.41-.5.5Z"/>
  <polygon class="cls-1" points="513 221 653 224 532.7 299.5 513 221"/>
  <polygon class="cls-1" points="375 274 388 323 75 383 375 274"/>
  <polygon class="cls-1" points="347 271 341.5 252 0 399 347 271"/>
  <polygon class="cls-1" points="365.11 339.65 370.19 358.77 1.77 408.78 365.11 339.65"/>
</svg>